<svg width="1006" height="975" viewBox="0 0 1006 975" fill="none" xmlns="http://www.w3.org/2000/svg">
<path d="M657.711 449.342C690.594 539.725 623.895 626.14 508.737 642.365C393.58 658.59 319.962 608.288 344.298 530.015C368.64 451.743 435.339 365.322 493.271 336.992C551.21 308.663 624.828 358.965 657.711 449.342Z" fill="#CBCBCB" fill-opacity="0.3"/>
<path d="M691.161 441.155C731.146 551.061 650.035 656.151 509.999 675.881C369.963 695.61 280.434 634.441 310.037 539.255C339.64 444.069 420.744 338.979 491.198 304.53C561.652 270.081 651.176 331.244 691.161 441.155Z" fill="#CBCBCB" fill-opacity="0.3"/>
<path d="M728.866 431.922C776.855 563.837 679.505 689.973 511.426 713.646C343.347 737.325 235.895 663.905 271.423 549.666C306.952 435.421 404.303 309.291 488.864 267.942C573.424 226.594 680.876 300.008 728.866 431.922Z" fill="#CBCBCB" fill-opacity="0.3"/>
<path d="M763.236 423.504C818.523 575.484 706.371 720.801 512.73 748.076C319.09 775.357 195.294 690.771 236.224 559.155C277.154 427.539 389.312 282.222 486.73 234.583C584.147 186.945 707.944 271.525 763.236 423.504Z" fill="#CBCBCB" fill-opacity="0.3"/>
<path d="M806.465 412.923C870.932 590.136 740.156 759.583 514.364 791.393C288.572 823.203 144.22 724.574 191.947 571.101C239.674 417.629 370.45 248.181 484.047 192.631C597.645 137.081 741.997 235.711 806.465 412.923Z" fill="#CBCBCB" fill-opacity="0.3"/>
<path d="M852.101 401.751C926.261 605.599 775.825 800.517 516.089 837.106C256.36 873.694 90.3106 760.242 145.207 583.7C200.11 407.158 350.546 212.245 481.219 148.345C611.891 84.4449 777.94 197.897 852.101 401.751Z" fill="#CBCBCB" fill-opacity="0.3"/>
<path d="M906.564 388.415C992.289 624.055 818.395 849.369 518.15 891.668C217.911 933.968 25.9649 802.815 89.4265 598.742C152.888 394.669 326.789 169.355 477.841 95.4891C628.893 21.6236 820.839 152.77 906.564 388.415Z" fill="#CBCBCB" fill-opacity="0.3"/>
<path d="M979.896 370.466C1081.19 648.91 875.706 915.153 520.93 965.132C166.148 1015.11 -60.6622 860.145 14.3274 618.996C89.3232 377.853 294.809 111.611 473.3 24.33C651.791 -62.9505 878.601 92.0151 979.896 370.466Z" fill="#CBCBCB" fill-opacity="0.3"/>
</svg>
